<svg width="1200" height="360" viewBox="0 0 1200 360" fill="none" xmlns="http://www.w3.org/2000/svg">
  <defs>
    <linearGradient id="bg" x1="80" y1="40" x2="1120" y2="320" gradientUnits="userSpaceOnUse">
      <stop stop-color="#0D0D10"/>
      <stop offset="0.55" stop-color="#15151A"/>
      <stop offset="1" stop-color="#111217"/>
    </linearGradient>
    <radialGradient id="pinkGlow" cx="0" cy="0" r="1" gradientUnits="userSpaceOnUse" gradientTransform="translate(868 98) rotate(152.58) scale(276 192)">
      <stop stop-color="#F6C8D7" stop-opacity="0.85"/>
      <stop offset="1" stop-color="#F6C8D7" stop-opacity="0"/>
    </radialGradient>
    <radialGradient id="goldGlow" cx="0" cy="0" r="1" gradientUnits="userSpaceOnUse" gradientTransform="translate(1040 92) rotate(145.6) scale(230 164)">
      <stop stop-color="#D9B65A" stop-opacity="0.88"/>
      <stop offset="1" stop-color="#D9B65A" stop-opacity="0"/>
    </radialGradient>
    <linearGradient id="chip" x1="0" y1="0" x2="1" y2="1">
      <stop stop-color="#1F2027"/>
      <stop offset="1" stop-color="#15161D"/>
    </linearGradient>
    <filter id="shadow" x="-20%" y="-20%" width="140%" height="140%">
      <feDropShadow dx="0" dy="18" stdDeviation="18" flood-color="#000000" flood-opacity="0.35"/>
    </filter>
  </defs>

  <rect x="18" y="18" width="1164" height="324" rx="36" fill="url(#bg)"/>
  <rect x="18" y="18" width="1164" height="324" rx="36" stroke="#2A2B33"/>
  <ellipse cx="872" cy="96" rx="286" ry="198" fill="url(#pinkGlow)"/>
  <ellipse cx="1042" cy="92" rx="232" ry="170" fill="url(#goldGlow)"/>

  <path d="M108 286C234 228 338 234 448 258C564 283 674 307 784 280C875 257 970 221 1100 246" stroke="#F6D7E2" stroke-opacity="0.18" stroke-width="2"/>
  <path d="M88 302C214 242 334 247 453 271C563 293 676 320 802 294C900 274 990 240 1119 264" stroke="#D7B34F" stroke-opacity="0.16" stroke-width="2"/>

  <g opacity="0.75">
    <circle cx="116" cy="74" r="4" fill="#F8D9E5"/>
    <circle cx="1026" cy="236" r="4" fill="#D7B34F"/>
    <circle cx="1082" cy="116" r="3" fill="#F8D9E5"/>
    <circle cx="262" cy="110" r="2.5" fill="#D7B34F"/>
  </g>

  <g opacity="0.9">
    <path d="M103 110L108 98L113 110L125 115L113 120L108 132L103 120L91 115L103 110Z" fill="#F8D9E5"/>
    <path d="M1021 143L1025 134L1029 143L1038 147L1029 151L1025 160L1021 151L1012 147L1021 143Z" fill="#D7B34F"/>
  </g>

  <g filter="url(#shadow)">
    <rect x="92" y="68" width="176" height="42" rx="21" fill="#121319" stroke="#2B2D36"/>
    <text x="180" y="94" text-anchor="middle" fill="#F7D7E3" font-family="Segoe UI, Arial, sans-serif" font-size="18" letter-spacing="2.2">pinkyni-boo</text>
  </g>

  <text x="600" y="132" text-anchor="middle" fill="#FFF7FA" font-family="Segoe UI, Arial, sans-serif" font-size="58" font-weight="700">Vu Thi Ngoc Thao</text>
  <text x="600" y="176" text-anchor="middle" fill="#F8E7EE" font-family="Segoe UI, Arial, sans-serif" font-size="22" font-weight="600">Frontend Developer  |  React / TypeScript</text>
  <text x="600" y="214" text-anchor="middle" fill="#EAD7DF" font-family="Georgia, 'Times New Roman', serif" font-size="24" font-style="italic">soft-dark interfaces, elegant details, and beautiful little interactions</text>

  <g>
    <rect x="294" y="248" width="152" height="42" rx="21" fill="url(#chip)" stroke="#343640"/>
    <text x="370" y="274" text-anchor="middle" fill="#F6CAD9" font-family="Segoe UI, Arial, sans-serif" font-size="18" font-weight="600">soft dark</text>

    <rect x="464" y="248" width="196" height="42" rx="21" fill="url(#chip)" stroke="#343640"/>
    <text x="562" y="274" text-anchor="middle" fill="#FFF0C7" font-family="Segoe UI, Arial, sans-serif" font-size="18" font-weight="600">react + typescript</text>

    <rect x="678" y="248" width="228" height="42" rx="21" fill="url(#chip)" stroke="#343640"/>
    <text x="792" y="274" text-anchor="middle" fill="#ECDDE7" font-family="Segoe UI, Arial, sans-serif" font-size="18" font-weight="600">pretty little details</text>
  </g>

  <g transform="translate(904 222)">
    <rect width="188" height="62" rx="22" fill="#111218" stroke="#343640"/>
    <g transform="translate(18 14)">
      <ellipse cx="18" cy="16" rx="14" ry="11" fill="#F0A8C1"/>
      <ellipse cx="43" cy="16" rx="14" ry="11" fill="#F0A8C1"/>
      <circle cx="30.5" cy="16" r="8" fill="#D76396"/>
    </g>
    <text x="100" y="28" text-anchor="middle" fill="#FFEFF5" font-family="Segoe UI, Arial, sans-serif" font-size="15" font-weight="700">hello kitty  +  kuromi</text>
    <text x="100" y="46" text-anchor="middle" fill="#D6C6CF" font-family="Segoe UI, Arial, sans-serif" font-size="13">mini sticker energy</text>
  </g>
</svg>
