<svg width="320" height="96" viewBox="0 0 320 96" fill="none" xmlns="http://www.w3.org/2000/svg">
  <defs>
    <linearGradient id="kuroBg" x1="22" y1="16" x2="298" y2="80" gradientUnits="userSpaceOnUse">
      <stop stop-color="#121219"/>
      <stop offset="1" stop-color="#1A1721"/>
    </linearGradient>
  </defs>
  <rect x="3" y="3" width="314" height="90" rx="26" fill="url(#kuroBg)"/>
  <rect x="3" y="3" width="314" height="90" rx="26" stroke="#E2B6C9" stroke-width="2"/>
  <rect x="14" y="14" width="292" height="68" rx="20" fill="#FFFFFF" fill-opacity="0.03"/>

  <g transform="translate(24 18)">
    <path d="M20 21L5 7L22 8L35 2L34 18L28 31L20 21Z" fill="#C59BC7"/>
    <path d="M58 21L73 7L56 8L43 2L44 18L50 31L58 21Z" fill="#C59BC7"/>
    <circle cx="39" cy="30" r="16" fill="#FFFFFF"/>
    <path d="M31 28L35 32" stroke="#111218" stroke-width="2.3" stroke-linecap="round"/>
    <path d="M35 28L31 32" stroke="#111218" stroke-width="2.3" stroke-linecap="round"/>
    <path d="M43 28L47 32" stroke="#111218" stroke-width="2.3" stroke-linecap="round"/>
    <path d="M47 28L43 32" stroke="#111218" stroke-width="2.3" stroke-linecap="round"/>
    <path d="M34 39C37 41 41 41 44 39" stroke="#111218" stroke-width="2.2" stroke-linecap="round"/>
    <circle cx="39" cy="15" r="5" fill="#111218"/>
    <path d="M35 15H43" stroke="#FFFFFF" stroke-width="1.8" stroke-linecap="round"/>
    <path d="M39 11V19" stroke="#FFFFFF" stroke-width="1.8" stroke-linecap="round"/>
  </g>

  <circle cx="278" cy="25" r="4" fill="#E3B955"/>
  <path d="M287 44L290 37L293 44L300 47L293 50L290 57L287 50L280 47L287 44Z" fill="#F5C8D8"/>

  <text x="118" y="39" fill="#FFF6FA" font-family="Segoe UI, Arial, sans-serif" font-size="21" font-weight="700">Kuromi</text>
  <text x="118" y="61" fill="#C8B8C2" font-family="Segoe UI, Arial, sans-serif" font-size="14">midnight charm  •  tiny rebel sparkle</text>
</svg>
