<svg width="220" height="220" viewBox="0 0 220 220" fill="none" xmlns="http://www.w3.org/2000/svg">
  <defs>
    <filter id="shadow" x="8" y="14" width="204" height="194" filterUnits="userSpaceOnUse" color-interpolation-filters="sRGB">
      <feDropShadow dx="0" dy="10" stdDeviation="10" flood-color="#000000" flood-opacity="0.22"/>
    </filter>
  </defs>

  <g filter="url(#shadow)">
    <path d="M48 90C38 78 37 58 48 44L80 20C87 15 97 19 98 29L101 57H119L122 29C123 19 133 15 140 20L172 44C183 58 182 78 172 90L166 100L166 155C166 173 151 188 132 188H88C69 188 54 173 54 155L54 100L48 90Z" fill="#FFFFFF" stroke="#FFFFFF" stroke-width="18" stroke-linejoin="round"/>
  </g>

  <path d="M48 90C38 78 37 58 48 44L80 20C87 15 97 19 98 29L101 57H119L122 29C123 19 133 15 140 20L172 44C183 58 182 78 172 90L166 100L166 155C166 173 151 188 132 188H88C69 188 54 173 54 155L54 100L48 90Z" fill="#2B242C" stroke="#2B242C" stroke-width="3.2" stroke-linejoin="round"/>

  <path d="M83 24L61 41C54 47 52 58 56 67C63 58 79 56 92 57L90 31C90 26 86 23 83 24Z" fill="#2B242C"/>
  <path d="M137 24L159 41C166 47 168 58 164 67C157 58 141 56 128 57L130 31C130 26 134 23 137 24Z" fill="#2B242C"/>

  <ellipse cx="110" cy="118" rx="46" ry="44" fill="#FFFDFE"/>
  <path d="M91 108L100 117" stroke="#2B2428" stroke-width="3.4" stroke-linecap="round"/>
  <path d="M100 108L91 117" stroke="#2B2428" stroke-width="3.4" stroke-linecap="round"/>
  <ellipse cx="126.5" cy="111" rx="4.8" ry="6.5" fill="#2B2428"/>
  <path d="M105 129C108 132 112 132 115 129" stroke="#2B2428" stroke-width="3" stroke-linecap="round"/>
  <circle cx="92" cy="127" r="5.5" fill="#F0C6D8" fill-opacity="0.75"/>
  <circle cx="136" cy="127" r="5.5" fill="#F0C6D8" fill-opacity="0.75"/>

  <g transform="translate(96 62)">
    <circle cx="14" cy="14" r="13" fill="#F29CBE" stroke="#2B2428" stroke-width="3"/>
    <path d="M14 8V20" stroke="#2B2428" stroke-width="2.6" stroke-linecap="round"/>
    <path d="M8 14H20" stroke="#2B2428" stroke-width="2.6" stroke-linecap="round"/>
  </g>

  <path d="M35 153L42 139L49 153L63 160L49 167L42 181L35 167L21 160L35 153Z" fill="#F6C7D9" stroke="#FFFFFF" stroke-width="5" stroke-linejoin="round"/>
  <path d="M176 42L180 34L184 42L192 46L184 50L180 58L176 50L168 46L176 42Z" fill="#F1CF72" stroke="#FFFFFF" stroke-width="4" stroke-linejoin="round"/>
  <path d="M180 150L183 144L186 150L192 153L186 156L183 162L180 156L174 153L180 150Z" fill="#E5D8F2" stroke="#FFFFFF" stroke-width="4" stroke-linejoin="round"/>
</svg>
